<?xml version="1.0" encoding="utf-8"?>
<!-- Generator: Adobe Illustrator 25.2.2, SVG Export Plug-In . SVG Version: 6.00 Build 0)  -->
<svg version="1.1" id="LOGO" xmlns="http://www.w3.org/2000/svg" xmlns:xlink="http://www.w3.org/1999/xlink" x="0px" y="0px"
	 viewBox="0 0 234.5 234.5" style="enable-background:new 0 0 234.5 234.5;" xml:space="preserve">
<style type="text/css">
	.st0{fill:#FFFFFF;}
</style>
<path id="TB" class="st0" d="M158.7,171H95.6c-3.9,0-6.9-3.1-6.9-6.9V122c0-3.8,3.1-6.9,6.9-6.9s6.9,3.1,6.9,6.9v35.1h55
	c0.4-0.1,0.7-0.1,1.1-0.1c7.6-0.1,13.8-6.4,13.8-14c0-7.6-6.2-13.9-13.8-14c-1.1,0-2.2-0.3-3.1-0.8c-2.4-1.2-4-3.6-4-6.3v-0.1
	c0-3.8,3.1-6.8,6.8-6.9c7.6-0.1,13.8-6.4,13.8-14s-6.2-13.9-13.8-14c-0.4,0-0.7,0-1.1-0.1h-97V122c0,3.8-3.1,6.9-6.9,6.9
	c-3.8,0-6.9-3.1-6.9-6.9V80c0-3.8,3.1-6.9,6.9-6.9h105.2c0.5,0,1,0.1,1.4,0.2c14.6,1,26,13.1,26,27.8c0,8.1-3.5,15.7-9.5,20.9
	c6.1,5.2,9.7,12.9,9.7,21.1c0,14.7-11.4,26.9-26,27.8C159.7,171,159.2,171,158.7,171z"/>
<path id="Circle" class="st0" d="M117.3,16c55.9,0,101.2,45.3,101.2,101.2s-45.3,101.2-101.2,101.2C61.3,218.5,16,173.2,16,117.2
	S61.3,16,117.3,16 M117.3,0c-31.4,0-60.8,12.2-83,34.3C12.2,56.5,0,85.9,0,117.2s12.2,60.8,34.3,82.9s51.6,34.3,82.9,34.3
	s60.8-12.2,82.9-34.3s34.3-51.6,34.3-82.9s-12.2-60.8-34.3-82.9S148.6,0,117.3,0L117.3,0z"/>
</svg>
