<?xml version="1.0" encoding="utf-8"?>
<!-- Generator: Adobe Illustrator 26.0.1, SVG Export Plug-In . SVG Version: 6.00 Build 0)  -->
<svg version="1.1" id="Ebene_1" xmlns="http://www.w3.org/2000/svg" xmlns:xlink="http://www.w3.org/1999/xlink" x="0px" y="0px"
	 viewBox="0 0 150 150" style="enable-background:new 0 0 150 150;" xml:space="preserve">
<style type="text/css">
	.st0{fill:#FFFFFF;}
</style>
<circle class="st0" cx="75" cy="75" r="73"/>
<path id="TB" d="M101.7,109.2H61.4c-2.5,0-4.4-2-4.4-4.4V77.9c0-2.4,2-4.4,4.4-4.4s4.4,2,4.4,4.4v22.4H101c0.3-0.1,0.4-0.1,0.7-0.1
	c4.9-0.1,8.8-4.1,8.8-9s-4-8.9-8.8-9c-0.7,0-1.4-0.2-2-0.5c-1.5-0.8-2.6-2.3-2.6-4v-0.1c0-2.4,2-4.3,4.3-4.4c4.9-0.1,8.8-4.1,8.8-9
	s-4-8.9-8.8-9c-0.3,0-0.4,0-0.7-0.1h-62v22.5c0,2.4-2,4.4-4.4,4.4s-4.4-2-4.4-4.4V51c0-2.4,2-4.4,4.4-4.4h67.3
	c0.3,0,0.6,0.1,0.9,0.1c9.3,0.6,16.6,8.4,16.6,17.8c0,5.2-2.2,10-6.1,13.4c3.9,3.3,6.2,8.2,6.2,13.5c0,9.4-7.3,17.2-16.6,17.8
	C102.4,109.2,102,109.2,101.7,109.2z"/>
<path id="Circle" d="M75.2,10.1c35.7,0,64.7,29,64.7,64.7s-29,64.7-64.7,64.7c-35.8,0.1-64.8-28.9-64.8-64.7S39.4,10.1,75.2,10.1
	 M75.2-0.1c-20.1,0-38.9,7.8-53.1,21.9C8,36,0.2,54.8,0.2,74.8s7.8,38.9,21.9,53s33,21.9,53,21.9s38.9-7.8,53-21.9s21.9-33,21.9-53
	s-7.8-38.9-21.9-53C114.1,7.7,95.3-0.1,75.2-0.1L75.2-0.1z"/>
</svg>
