<?xml version="1.0" encoding="utf-8"?>
<!-- Generator: Adobe Illustrator 26.0.1, SVG Export Plug-In . SVG Version: 6.00 Build 0)  -->
<svg version="1.1" id="Ebene_1" xmlns="http://www.w3.org/2000/svg" xmlns:xlink="http://www.w3.org/1999/xlink" x="0px" y="0px"
	 viewBox="0 0 40 40" style="enable-background:new 0 0 40 40;" xml:space="preserve">
<style type="text/css">
	.st0{fill:#8042FE;}
	.st1{fill:#FFFFFF;}
</style>
<g id="XING">
	<g>
		<path class="st0" d="M40,30c0,5.5-4.5,10-10,10H10C4.5,40,0,35.5,0,30V10.1c0-5.5,4.5-10,10-10h20c5.5,0,10,4.5,10,10
			C40,10.1,40,30,40,30z"/>
	</g>
	<polygon class="st1" points="26.3,7.6 18,22.5 23.5,32.2 28.4,32.2 23.1,22.5 31.4,7.6 	"/>
	<polygon class="st1" points="15.9,12.9 10.8,12.9 13.6,17.8 9.4,25.2 14.5,25.2 18.7,17.8 	"/>
</g>
</svg>
