<?xml version="1.0" encoding="utf-8"?>
<!-- Generator: Adobe Illustrator 26.0.1, SVG Export Plug-In . SVG Version: 6.00 Build 0)  -->
<svg version="1.1" id="Ebene_1" xmlns="http://www.w3.org/2000/svg" xmlns:xlink="http://www.w3.org/1999/xlink" x="0px" y="0px"
	 viewBox="0 0 40 40" style="enable-background:new 0 0 40 40;" xml:space="preserve">
<style type="text/css">
	.st0{fill:#8042FE;}
	.st1{fill:#FFFFFF;}
</style>
<g id="TWITTER">
	<g>
		<path class="st0" d="M40,30c0,5.5-4.5,10-10,10H10C4.5,40,0,35.5,0,30V10.1c0-5.5,4.5-10,10-10h20c5.5,0,10,4.5,10,10V30z"/>
	</g>
	<path class="st1" d="M31.9,11.9c-0.8,0.5-1.8,1-3,1.2c-0.8-1-2.2-1.5-3.5-1.5c-3.2,0-5.3,2.8-4.7,5.8c-4-0.2-7.5-2.2-9.8-5
		c-1.2,2.2-0.7,4.8,1.5,6.3c-0.8-0.2-1.5-0.3-2.2-0.7c-0.2,2.2,1.5,4.3,3.8,4.7c-0.7,0.2-1.3,0.2-2.2,0c0.7,1.8,2.3,3.3,4.5,3.3
		c-2.2,1.7-4.7,2.3-7.1,2c2.2,1.3,4.7,2.2,7.3,2.2c9,0,14-7.5,13.6-14.1c0.8-0.7,1.7-1.5,2.2-2.3c-0.8,0.5-1.7,0.7-2.7,0.8
		C30.7,13.9,31.6,13.1,31.9,11.9z"/>
</g>
</svg>
