<?xml version="1.0" encoding="utf-8"?>
<!-- Generator: Adobe Illustrator 26.0.1, SVG Export Plug-In . SVG Version: 6.00 Build 0)  -->
<svg version="1.1" id="Ebene_1" xmlns="http://www.w3.org/2000/svg" xmlns:xlink="http://www.w3.org/1999/xlink" x="0px" y="0px"
	 viewBox="0 0 40 40" style="enable-background:new 0 0 40 40;" xml:space="preserve">
<style type="text/css">
	.st0{fill:#8042FE;}
	.st1{fill:#FFFFFF;}
</style>
<g id="GITHUB">
	<g>
		<path class="st0" d="M40,30c0,5.5-4.5,10-10,10H10C4.5,40,0,35.5,0,30V10.1c0-5.5,4.5-10,10-10h20c5.5,0,10,4.5,10,10V30z"/>
	</g>
	<path class="st1" d="M29.3,8.2c0,0-1.4-0.5-4.5,1.6c-1.2-0.3-2.8-0.5-4-0.5s-2.6,0.2-4,0.5c-3.1-1.9-4.5-1.6-4.5-1.6
		c-1,2.2-0.3,4-0.3,4.3c-0.9,1-1.6,2.6-1.6,4.3c0,6.2,3.6,7.6,7.4,7.9c-0.5,0.3-0.9,1-1,2.1c-0.9,0.3-3.1,1-4.7-1.4
		c0,0-0.7-1.4-2.2-1.6c0,0-1.7,0-0.2,0.9c0,0,1,0.5,1.7,2.4c0,0,0.9,2.8,5.3,1.9v3c0,0.3-0.1,0.6-0.3,0.8c1.4,0.4,2.8,0.6,4.3,0.6
		s2.8-0.2,4.2-0.6c-0.2-0.2-0.4-0.4-0.4-0.6v-4.5c0-1.4-0.5-2.4-1-2.9c3.6-0.5,7.4-1.7,7.4-7.9c0-1.7-0.5-3.3-1.6-4.3
		C29.4,12,30.1,10.4,29.3,8.2z"/>
</g>
</svg>
