<?xml version="1.0" encoding="utf-8"?>
<!-- Generator: Adobe Illustrator 26.0.1, SVG Export Plug-In . SVG Version: 6.00 Build 0)  -->
<svg version="1.1" id="Ebene_1" xmlns="http://www.w3.org/2000/svg" xmlns:xlink="http://www.w3.org/1999/xlink" x="0px" y="0px"
	 viewBox="0 0 40 40" style="enable-background:new 0 0 40 40;" xml:space="preserve">
<style type="text/css">
	.st0{fill:#8042FE;}
	.st1{fill:#FFFFFF;}
</style>
<g id="LI">
	<g>
		<path class="st0" d="M40,30c0,5.5-4.5,10-10,10H10C4.5,40,0,35.5,0,30V10.1c0-5.5,4.5-10,10-10h20c5.5,0,10,4.5,10,10V30z"/>
	</g>
	<g>
		<path class="st1" d="M22.1,21.7c0-3.9,4.6-4.5,4.6,0v6.8h4.6v-7.9c0-7.4-7.2-7.2-9.3-3.5v-2.5h-4.6v13.9H22L22.1,21.7L22.1,21.7z"
			/>
		<rect x="10.4" y="14.4" class="st1" width="4.6" height="13.9"/>
		<path class="st1" d="M12.8,12.3c1.4,0,2.5-1.2,2.5-2.5c0-1.4-1.2-2.5-2.5-2.5c-1.4,0-2.5,1.2-2.5,2.5
			C10.2,11.1,11.4,12.3,12.8,12.3z"/>
	</g>
</g>
</svg>
